Coordinates
version=1
nRows=40
nColumns=30
inDegrees=yes

Units are S.I. units (second, meters, Newtons, ...)
Angles are in degrees.

endheader
time	floatyaw	floatroll	floatpitch	floatx	floaty	floatz	pro_sup_l	deviation_l	flexion_l	cmc_flexion_l	cmc_abduction_l	mp_flexion_l	ip_flexion_l	2mcp_flexion_l	2mcp_abduction_l	2pm_flexion_l	2md_flexion_l	3mcp_flexion_l	3mcp_abduction_l	3pm_flexion_l	3md_flexion_l	4mcp_flexion_l	4mcp_abduction_l	4pm_flexion_l	4md_flexion_l	5mcp_flexion_l	5mcp_abduction_l	5pm_flexion_l	5md_flexion_l
-0.495000	3.286137	-2.351481	98.024303	-0.105842	-0.192794	-0.029764	89.070177	0.702337	-2.081165	18.394864	-0.201567	-21.985126	-35.252695	36.347666	7.889903	46.058191	32.376151	23.140358	4.762661	45.426718	30.642116	14.760891	-4.693464	58.452669	39.999069	13.049801	-8.562540	56.749442	39.840547
-0.485000	3.286137	-2.351481	98.024303	-0.105847	-0.192781	-0.029762	89.072440	0.706444	-2.081864	18.383958	-0.194463	-21.977648	-35.248838	36.361152	7.880466	46.056911	32.372995	23.165032	4.757888	45.448719	30.638708	14.795713	-4.695694	58.432828	39.977305	13.042439	-8.523972	56.756620	39.837221
-0.475000	3.286137	-2.351481	98.024303	-0.105853	-0.192764	-0.029757	89.080568	0.711894	-2.083009	18.371501	-0.193263	-21.973298	-35.244591	36.383612	7.867485	46.050552	32.366407	23.184522	4.759718	45.455905	30.626129	14.843552	-4.700843	58.407649	39.949244	13.034607	-8.479069	56.762613	39.836764
-0.465000	3.286137	-2.351481	98.024303	-0.105862	-0.192746	-0.029746	89.091110	0.717319	-2.083846	18.354938	-0.196876	-21.972412	-35.239332	36.409819	7.852273	46.038094	32.356712	23.197254	4.766041	45.450710	30.608717	14.895598	-4.707910	58.381983	39.919113	13.027223	-8.434327	56.767821	39.838319
-0.455000	3.286137	-2.351481	98.024303	-0.105875	-0.192732	-0.029732	89.098662	0.720556	-2.083769	18.333044	-0.200815	-21.974066	-35.232383	36.433845	7.836947	46.022339	32.345942	23.203338	4.773597	45.441366	30.593141	14.941468	-4.715158	58.361163	39.892007	13.022071	-8.397068	56.772650	39.839738
-0.445000	3.286137	-2.351481	98.024303	-0.105888	-0.192723	-0.029717	89.099043	0.720058	-2.083031	18.307006	-0.199786	-21.976731	-35.223689	36.452055	7.823462	46.009050	32.336939	23.204515	4.779510	45.437834	30.585490	14.974252	-4.721109	58.349478	39.871998	13.020126	-8.371463	56.777323	39.838472
-0.435000	3.286137	-2.351481	98.024303	-0.105901	-0.192722	-0.029703	89.091261	0.715735	-2.082620	18.280302	-0.190483	-21.978918	-35.213932	36.464277	7.812771	46.004324	32.332130	23.203520	4.782381	45.447286	30.588780	14.993024	-4.725083	58.349095	39.860796	13.020099	-8.356680	56.782302	39.833038
-0.425000	3.286137	-2.351481	98.024303	-0.105912	-0.192727	-0.029691	89.077113	0.708644	-2.083269	18.257153	-0.172970	-21.979637	-35.204121	36.472758	7.804630	46.011696	32.332591	23.202837	4.782533	45.471540	30.602123	15.001610	-4.727131	58.359693	39.857490	13.018729	-8.348362	56.788664	39.823985
-0.415000	3.286137	-2.351481	98.024303	-0.105920	-0.192733	-0.029682	89.059373	0.700037	-2.084415	18.240375	-0.150245	-21.978692	-35.195065	36.480233	7.798055	46.030450	32.337693	23.203491	4.781472	45.507203	30.621615	15.005168	-4.727661	58.378705	39.859279	13.012938	-8.341965	56.797550	39.813493
-0.405000	3.286137	-2.351481	98.024303	-0.105926	-0.192737	-0.029676	89.040478	0.690666	-2.084059	18.229955	-0.126768	-21.976727	-35.187161	36.488731	7.791987	46.055945	32.345317	23.204835	4.780936	45.547729	30.642116	15.007507	-4.727207	58.401972	39.862627	13.002294	-8.335215	56.808775	39.803799
-0.395000	3.286137	-2.351481	98.024303	-0.105931	-0.192734	-0.029669	89.022526	0.680777	-2.079822	18.223211	-0.106860	-21.974956	-35.180493	36.499649	7.785736	46.081721	32.352568	23.205574	4.782082	45.586088	30.659029	15.010898	-4.726487	58.424808	39.864309	12.989988	-8.328190	56.819968	39.795722
-0.385000	3.286137	-2.351481	98.024303	-0.105937	-0.192723	-0.029661	89.007934	0.670568	-2.070495	18.216213	-0.093351	-21.974611	-35.175023	36.514324	7.779029	46.102286	32.356786	23.205216	4.785181	45.617059	30.669608	15.017453	-4.726471	58.443354	39.862116	12.981786	-8.321836	56.827504	39.788430
-0.375000	3.286137	-2.351481	98.024303	-0.105943	-0.192703	-0.029650	88.999541	0.660624	-2.056922	18.205421	-0.086628	-21.976378	-35.170637	36.534112	7.771714	46.115048	32.356425	23.204787	4.789822	45.638535	30.673554	15.029755	-4.728063	58.455749	39.855185	12.983771	-8.316717	56.828817	39.780491
-0.365000	3.286137	-2.351481	98.024303	-0.105950	-0.192676	-0.029633	88.999753	0.651954	-2.041490	18.188699	-0.084407	-21.980126	-35.167101	36.559578	7.763292	46.120390	32.351340	23.206322	4.795279	45.651661	30.672854	15.049469	-4.731354	58.462427	39.843965	12.999931	-8.312873	56.824330	39.771273
-0.355000	3.286137	-2.351481	98.024303	-0.105954	-0.192642	-0.029610	89.009248	0.645517	-2.026557	18.165576	-0.082527	-21.985093	-35.164089	36.589303	7.752628	46.120230	32.342451	23.211626	4.800680	45.660037	30.670968	15.074972	-4.734967	58.465411	39.829943	13.030239	-8.310224	56.817562	39.761623
-0.345000	3.286137	-2.351481	98.024303	-0.105953	-0.192603	-0.029580	89.026178	0.641537	-2.012967	18.137029	-0.076511	-21.990401	-35.161350	36.619378	7.738157	46.116401	32.331177	23.221244	4.804969	45.668418	30.671663	15.100317	-4.736218	58.467217	39.815279	13.069743	-8.308483	56.813469	39.753461
-0.335000	3.286137	-2.351481	98.024303	-0.105942	-0.192555	-0.029542	89.046410	0.639091	-1.999673	18.104927	-0.063209	-21.995534	-35.158828	36.644427	7.718634	46.110076	32.319065	23.234165	4.806985	45.681222	30.677807	15.117123	-4.732377	58.470220	39.802478	13.109432	-8.306435	56.816022	39.748623
-0.325000	3.286137	-2.351481	98.024303	-0.105920	-0.192497	-0.029494	89.064821	0.636420	-1.984583	18.071214	-0.041942	-22.000452	-35.156535	36.659848	7.694086	46.102336	32.307716	23.248211	4.805898	45.701032	30.690469	15.118697	-4.722410	58.476652	39.793979	13.139321	-8.301508	56.826261	39.747720
-0.315000	3.286137	-2.351481	98.024303	-0.105885	-0.192426	-0.029433	89.077212	0.632031	-1.965931	18.037041	-0.014821	-22.005346	-35.154260	36.663763	7.666384	46.095003	32.298798	23.260684	4.801809	45.727573	30.708633	15.103752	-4.707968	58.488668	39.791578	13.152845	-8.290733	56.841787	39.749700
-0.305000	3.286137	-2.351481	98.024303	-0.105834	-0.192340	-0.029359	89.082166	0.626123	-1.943280	18.002367	0.014160	-22.010409	-35.151487	36.657132	7.638974	46.090794	32.293941	23.268964	4.796021	45.758060	30.729840	15.077176	-4.692819	58.507986	39.795846	13.150227	-8.272956	56.858039	39.752353
-0.295000	3.286137	-2.351481	98.024303	-0.105766	-0.192238	-0.029271	89.082010	0.621476	-1.917734	17.966436	0.041468	-22.015921	-35.147797	36.642052	7.615667	46.092587	32.294488	23.270913	4.790688	45.789243	30.751648	15.047527	-4.681032	58.535252	39.805916	13.138509	-8.250599	56.870754	39.753322
-0.285000	3.286137	-2.351481	98.024303	-0.105677	-0.192115	-0.029170	89.082299	0.622984	-1.891564	17.929011	0.066971	-22.022531	-35.143546	36.619890	7.598902	46.102218	32.301091	23.265191	4.787975	45.819953	30.773111	15.023030	-4.675096	58.569672	39.819829	13.127911	-8.229127	56.878097	39.750921
-0.275000	3.286137	-2.351481	98.024303	-0.105564	-0.191969	-0.029059	89.089938	0.635787	-1.867624	17.891593	0.095550	-22.031272	-35.140237	36.590904	7.588326	46.119280	32.313140	23.251771	4.789126	45.851913	30.795014	15.008309	-4.674947	58.609123	39.835191	13.126555	-8.214115	56.881096	39.744342
-0.265000	3.286137	-2.351481	98.024303	-0.105426	-0.191797	-0.028938	89.110903	0.662915	-1.848762	17.857733	0.135865	-22.042876	-35.140043	36.555444	7.580565	46.140357	32.328222	23.232644	4.793830	45.887497	30.818272	15.003103	-4.678167	58.650402	39.849600	13.136335	-8.207788	56.882171	39.733440
-0.255000	3.286137	-2.351481	98.024303	-0.105263	-0.191602	-0.028809	89.148608	0.703670	-1.837075	17.831978	0.196625	-22.056581	-35.144502	36.515300	7.570508	46.159355	32.342172	23.212098	4.800157	45.925687	30.841441	15.003184	-4.681048	58.689099	39.860466	13.151548	-8.207231	56.882791	39.718615
-0.245000	3.286137	-2.351481	98.024303	-0.105074	-0.191386	-0.028671	89.203240	0.753507	-1.832723	17.817691	0.282566	-22.069231	-35.153009	36.473854	7.553682	46.169739	32.350396	23.195551	4.805164	45.959553	30.859499	15.002621	-4.680055	58.719385	39.864611	13.160481	-8.205433	56.881718	39.701002
-0.235000	3.286137	-2.351481	98.024303	-0.104858	-0.191154	-0.028524	89.271852	0.805309	-1.832259	17.814369	0.392665	-22.075760	-35.162070	36.435051	7.528841	46.168449	32.350289	23.186619	4.806046	45.978342	30.865736	14.996037	-4.673173	58.734906	39.858628	13.149718	-8.194982	56.874906	39.682687
-0.225000	3.286137	-2.351481	98.024303	-0.104613	-0.190907	-0.028361	89.349357	0.851304	-1.827018	17.815437	0.521565	-22.071584	-35.166158	36.402413	7.499686	46.159390	32.343356	23.184054	4.801469	45.974351	30.856461	14.980184	-4.660710	58.731742	39.840625	13.110610	-8.172929	56.857476	39.666566
-0.215000	3.286137	-2.351481	98.024303	-0.104334	-0.190642	-0.028176	89.431235	0.884714	-1.802586	17.807699	0.663234	-22.056175	-35.160228	36.379047	7.474745	46.153584	32.335248	23.181664	4.792493	45.951103	30.835819	14.955951	-4.645372	58.712416	39.812448	13.046197	-8.144118	56.827630	39.655864
-0.205000	3.286137	-2.351481	98.024303	-0.104012	-0.190347	-0.027960	89.518133	0.900577	-1.740215	17.773416	0.815336	-22.035867	-35.142976	36.367996	7.464679	46.165069	32.333360	23.173458	4.782529	45.927573	30.817247	14.932018	-4.631627	58.687984	39.780428	12.975827	-8.120305	56.790992	39.653436
-0.195000	3.286137	-2.351481	98.024303	-0.103637	-0.190000	-0.027701	89.620596	0.895903	-1.620250	17.695120	0.983600	-22.023620	-35.119084	36.370884	7.477034	46.205019	32.343725	23.162537	4.776070	45.934641	30.819697	14.928555	-4.624239	58.675612	39.753458	12.935117	-8.114425	56.761985	39.660484
-0.185000	3.286137	-2.351481	98.024303	-0.103187	-0.189561	-0.027380	89.760259	0.869882	-1.426681	17.561937	1.185741	-22.034529	-35.098757	36.383483	7.509618	46.277873	32.369512	23.168224	4.776519	46.003846	30.859748	14.976416	-4.625872	58.691492	39.739152	12.970104	-8.132498	56.758848	39.674282
-0.175000	3.286137	-2.351481	98.024303	-0.102624	-0.188976	-0.026969	89.963919	0.824863	-1.151649	17.375250	1.452948	-22.078225	-35.094001	36.389832	7.545250	46.381056	32.411672	23.225036	4.784172	46.152523	30.943056	15.108415	-4.634395	58.741601	39.740020	13.125716	-8.167680	56.792502	39.685739
-0.165000	3.286137	-2.351481	98.024303	-0.101884	-0.188169	-0.026430	90.249727	0.768191	-0.799032	17.151363	1.825314	-22.151708	-35.112925	36.359495	7.551434	46.506830	32.470165	23.371504	4.795551	46.371548	31.058965	15.344926	-4.641506	58.814122	39.751296	13.430925	-8.200338	56.854453	39.678980
-0.155000	3.286137	-2.351481	98.024303	-0.100881	-0.187053	-0.025710	90.609570	0.714368	-0.386970	16.919699	2.339140	-22.237097	-35.154970	36.252760	7.487216	46.644025	32.543965	23.634403	4.804635	46.621340	31.180740	15.682122	-4.634342	58.877545	39.761312	13.886360	-8.204741	56.910740	39.634534
-0.145000	3.286137	-2.351481	98.024303	-0.099502	-0.185531	-0.024750	90.996376	0.687036	0.049868	16.716551	3.009922	-22.307296	-35.210286	36.034898	7.315976	46.779163	32.629632	24.019275	4.805414	46.838854	31.271491	16.092428	-4.600404	58.887200	39.754633	14.461855	-8.158734	56.906291	39.535315
-0.135000	3.286137	-2.351481	98.024303	-0.097619	-0.183511	-0.023487	91.326427	0.720845	0.456788	16.576125	3.821466	-22.338752	-35.264937	35.694546	7.019236	46.898346	32.719963	24.515275	4.794475	46.954118	31.293673	16.540580	-4.534033	58.799521	39.717228	15.107860	-8.050878	56.779635	39.372618
-0.125000	3.286137	-2.351481	98.024303	-0.095098	-0.180909	-0.021859	91.502537	0.863311	0.753365	16.521942	4.732461	-22.325734	-35.310282	35.256555	6.605354	46.991071	32.804225	25.111256	4.772441	46.911319	31.218953	17.006778	-4.440991	58.589381	39.641773	15.776300	-7.881923	56.484656	39.149635
-0.115000	3.286137	-2.351481	98.024303	-0.091811	-0.177651	-0.019820	91.454559	1.175510	0.827584	16.562281	5.703315	-22.287439	-35.351459	34.779650	6.109129	47.055177	32.870123	25.808305	4.743955	46.687996	31.035641	17.499142	-4.337678	58.264447	39.530726	16.438539	-7.662243	56.014058	38.881899
-0.105000	3.286137	-2.351481	98.024303	-0.087647	-0.173683	-0.017340	91.182980	1.728131	0.536252	16.692752	6.732758	-22.260522	-35.408947	34.334620	5.582063	47.100476	32.906446	26.612700	4.716739	46.306024	30.752142	18.040966	-4.243749	57.871137	39.395474	17.087046	-7.409156	55.416762	38.595397
